<svg width="1584" height="396" viewBox="0 0 1584 396" fill="none" xmlns="http://www.w3.org/2000/svg">
<rect width="1584" height="396" fill="#F5F5F5"/>
<g id="Awesome banner" clip-path="url(#clip0_0_1)">
<rect width="1584" height="396" fill="url(#paint0_linear_0_1)"/>
<ellipse id="Ellipse 2" cx="323" cy="64" rx="285" ry="288" fill="url(#paint1_linear_0_1)" fill-opacity="0.1"/>
<g id="copyright">
<path d="M75.95 334.52L72.30 334.52L72.30 311.16L77.20 311.16L83.70 330.04Q83.60 329.02 83.50 327.62Q83.41 326.23 83.33 324.79Q83.25 323.35 83.25 322.23L83.25 311.16L86.90 311.16L86.90 334.52L82 334.52L75.57 315.64Q75.63 316.57 75.73 317.88Q75.82 319.19 75.89 320.57Q75.95 321.94 75.95 323.10L75.95 334.52M98.80 334.84Q96.46 334.84 94.67 333.96Q92.88 333.08 91.89 331.53Q90.90 329.98 90.90 327.93Q90.90 325.78 92.13 324.18Q93.36 322.58 95.34 322.17L95.34 322.10Q93.65 321.75 92.61 320.38Q91.57 319 91.57 317.11Q91.57 315.26 92.48 313.85Q93.39 312.44 95.02 311.64Q96.66 310.84 98.80 310.84Q100.94 310.84 102.59 311.64Q104.24 312.44 105.15 313.85Q106.06 315.26 106.06 317.11Q106.06 319 105.01 320.38Q103.95 321.75 102.26 322.10L102.26 322.17Q104.24 322.58 105.47 324.18Q106.70 325.78 106.70 327.93Q106.70 329.98 105.71 331.53Q104.72 333.08 102.93 333.96Q101.14 334.84 98.80 334.84M98.80 320.73Q100.30 320.73 101.23 319.82Q102.16 318.90 102.16 317.46Q102.16 315.99 101.23 315.08Q100.30 314.17 98.80 314.17Q97.30 314.17 96.37 315.08Q95.44 315.99 95.44 317.46Q95.44 318.90 96.37 319.82Q97.30 320.73 98.80 320.73M98.80 331.45Q100.56 331.45 101.68 330.42Q102.80 329.40 102.80 327.74Q102.80 326.04 101.68 325Q100.56 323.96 98.80 323.96Q97.04 323.96 95.92 325Q94.80 326.04 94.80 327.74Q94.80 329.40 95.92 330.42Q97.04 331.45 98.80 331.45M114.35 334.52L110.70 334.52L110.70 311.16L115.60 311.16L122.10 330.04Q122 329.02 121.90 327.62Q121.81 326.23 121.73 324.79Q121.65 323.35 121.65 322.23L121.65 311.16L125.30 311.16L125.30 334.52L120.40 334.52L113.97 315.64Q114.03 316.57 114.13 317.88Q114.22 319.19 114.29 320.57Q114.35 321.94 114.35 323.10" fill="white" fill-opacity="0.9"/>
<path d="M161.48 325.24L151.24 325.24L151.24 322.68L161.48 322.68" fill="white" fill-opacity="0.9"/>
<path d="M195.02 334.84Q191.82 334.84 189.96 333.05Q188.11 331.26 188.11 328.12L188.11 317.56Q188.11 314.42 189.96 312.63Q191.82 310.84 195.02 310.84Q198.15 310.84 200.01 312.65Q201.87 314.46 201.87 317.56L198.99 317.56Q198.99 315.58 197.95 314.50Q196.91 313.43 195.02 313.43Q193.13 313.43 192.06 314.50Q190.99 315.58 190.99 317.56L190.99 328.12Q190.99 330.10 192.06 331.18Q193.13 332.25 195.02 332.25Q196.91 332.25 197.95 331.18Q198.99 330.10 198.99 328.12L201.87 328.12Q201.87 331.22 200.01 333.03Q198.15 334.84 195.02 334.84" fill="white" fill-opacity="0.9"/>
<path d="M213.96 334.84Q210.83 334.84 209 333.02Q207.18 331.19 207.18 327.80L207.18 317.88Q207.18 314.49 209 312.66Q210.83 310.84 213.96 310.84Q217.10 310.84 218.92 312.66Q220.75 314.49 220.75 317.85L220.75 327.80Q220.75 331.19 218.92 333.02Q217.10 334.84 213.96 334.84M213.96 332.25Q215.85 332.25 216.86 331.18Q217.87 330.10 217.87 328.12L217.87 317.56Q217.87 315.58 216.86 314.50Q215.85 313.43 213.96 313.43Q212.11 313.43 211.08 314.50Q210.06 315.58 210.06 317.56L210.06 328.12Q210.06 330.10 211.08 331.18Q212.11 332.25 213.96 332.25" fill="white" fill-opacity="0.9"/>
<path d="M228.65 334.52L225.87 334.52L225.87 311.16L230.12 311.16L233.10 321.27L236.20 311.16L240.46 311.16L240.46 334.52L237.67 334.52L237.67 323.48Q237.67 321.91 237.72 319.88Q237.77 317.85 237.87 315.77Q237.96 313.69 238.09 312.02L234.31 324.09L231.82 324.09L228.20 312.31Q228.46 314.68 228.55 317.50Q228.65 320.31 228.65 323.48" fill="white" fill-opacity="0.9"/>
<path d="M247.85 334.52L245.07 334.52L245.07 311.16L249.32 311.16L252.30 321.27L255.40 311.16L259.66 311.16L259.66 334.52L256.87 334.52L256.87 323.48Q256.87 321.91 256.92 319.88Q256.97 317.85 257.07 315.77Q257.16 313.69 257.29 312.02L253.51 324.09L251.02 324.09L247.40 312.31Q247.66 314.68 247.75 317.50Q247.85 320.31 247.85 323.48" fill="white" fill-opacity="0.9"/>
<path d="M271.56 334.84Q268.30 334.84 266.57 333.03Q264.84 331.22 264.84 328.12L264.84 311.16L267.72 311.16L267.72 328.12Q267.72 330.04 268.67 331.16Q269.61 332.28 271.56 332.28Q273.48 332.28 274.44 331.16Q275.40 330.04 275.40 328.12L275.40 311.16L278.28 311.16L278.28 328.12Q278.28 331.26 276.57 333.05Q274.86 334.84 271.56 334.84" fill="white" fill-opacity="0.9"/>
<path d="M286.83 334.52L284.04 334.52L284.04 311.16L287.88 311.16L295.02 331.16Q294.95 330.36 294.87 329.19Q294.79 328.02 294.75 326.73Q294.70 325.43 294.70 324.28L294.70 311.16L297.48 311.16L297.48 334.52L293.64 334.52L286.54 314.52Q286.60 315.29 286.67 316.46Q286.73 317.62 286.78 318.92Q286.83 320.22 286.83 321.40" fill="white" fill-opacity="0.9"/>
<path d="M316.20 334.52L303.72 334.52L303.72 331.90L308.49 331.90L308.49 313.78L303.72 313.78L303.72 311.16L316.20 311.16L316.20 313.78L311.43 313.78L311.43 331.90L316.20 331.90" fill="white" fill-opacity="0.9"/>
<path d="M330.60 334.52L327.72 334.52L327.72 313.78L321.32 313.78L321.32 311.16L337 311.16L337 313.78L330.60 313.78" fill="white" fill-opacity="0.9"/>
<path d="M349.80 334.52L346.92 334.52L346.92 325.78L339.88 311.16L342.95 311.16L347.50 320.76Q347.88 321.56 348.11 322.12Q348.33 322.68 348.39 322.94Q348.46 322.68 348.70 322.12Q348.94 321.56 349.32 320.76L353.87 311.16L356.84 311.16L349.80 325.78" fill="white" fill-opacity="0.9"/>
<path d="M382.83 334.52L380.04 334.52L380.04 311.16L383.88 311.16L391.02 331.16Q390.95 330.36 390.87 329.19Q390.79 328.02 390.75 326.73Q390.70 325.43 390.70 324.28L390.70 311.16L393.48 311.16L393.48 334.52L389.64 334.52L382.54 314.52Q382.60 315.29 382.67 316.46Q382.73 317.62 382.78 318.92Q382.83 320.22 382.83 321.40" fill="white" fill-opacity="0.9"/>
<path d="M405.96 334.84Q402.83 334.84 401 333.02Q399.18 331.19 399.18 327.80L399.18 317.88Q399.18 314.49 401 312.66Q402.83 310.84 405.96 310.84Q409.10 310.84 410.92 312.66Q412.75 314.49 412.75 317.85L412.75 327.80Q412.75 331.19 410.92 333.02Q409.10 334.84 405.96 334.84M405.96 332.25Q407.85 332.25 408.86 331.18Q409.87 330.10 409.87 328.12L409.87 317.56Q409.87 315.58 408.86 314.50Q407.85 313.43 405.96 313.43Q404.11 313.43 403.08 314.50Q402.06 315.58 402.06 317.56L402.06 328.12Q402.06 330.10 403.08 331.18Q404.11 332.25 405.96 332.25" fill="white" fill-opacity="0.9"/>
<path d="M424.55 334.52L418.51 334.52L418.51 311.16L424.55 311.16Q426.83 311.16 428.47 312.02Q430.12 312.89 431.03 314.46Q431.95 316.02 431.95 318.17L431.95 327.48Q431.95 329.62 431.03 331.21Q430.12 332.79 428.47 333.66Q426.83 334.52 424.55 334.52M421.39 313.72L421.39 331.96L424.55 331.96Q426.67 331.96 427.87 330.78Q429.07 329.59 429.07 327.48L429.07 318.17Q429.07 316.09 427.87 314.90Q426.67 313.72 424.55 313.72" fill="white" fill-opacity="0.9"/>
<path d="M451.40 334.52L437.96 334.52L437.96 311.16L451.40 311.16L451.40 313.78L440.81 313.78L440.81 321.02L450.28 321.02L450.28 323.58L440.81 323.58L440.81 331.90L451.40 331.90" fill="white" fill-opacity="0.9"/>
<path d="M463.69 334.84Q460.30 334.84 458.28 333.05Q456.27 331.26 456.27 328.12L459.15 328.12Q459.15 330.07 460.39 331.18Q461.64 332.28 463.69 332.28Q465.67 332.28 466.86 331.13Q468.04 329.98 468.04 328.12Q468.04 326.71 467.29 325.67Q466.54 324.63 465.13 324.25L461.58 323.26Q459.37 322.62 458.11 320.97Q456.84 319.32 456.84 317.08Q456.84 315.22 457.67 313.82Q458.51 312.41 460.01 311.62Q461.51 310.84 463.47 310.84Q465.45 310.84 466.97 311.62Q468.49 312.41 469.35 313.80Q470.22 315.19 470.22 317.02L467.34 317.02Q467.34 315.42 466.25 314.41Q465.16 313.40 463.47 313.40Q461.77 313.40 460.71 314.41Q459.66 315.42 459.66 317.02Q459.66 318.30 460.35 319.21Q461.03 320.12 462.28 320.47L465.93 321.50Q468.27 322.14 469.56 323.91Q470.86 325.69 470.86 328.12Q470.86 331.19 468.91 333.02Q466.95 334.84 463.69 334.84" fill="white" fill-opacity="0.9"/>
</g>
<path d="M74.37 197.64L72.21 197.64L72.21 180.12L74.37 180.12L74.37 187.66L76.96 187.66L80.85 180.12L83.20 180.12L78.86 188.57L83.44 197.64L80.97 197.64L76.89 189.55L74.37 189.55" fill="white" fill-opacity="0.7"/>
<path d="M90.45 197.88Q88.41 197.88 87.21 196.74Q86.01 195.60 86.01 193.75Q86.01 192.53 86.56 191.62Q87.11 190.70 88.10 190.19Q89.08 189.67 90.35 189.67L94.43 189.67L94.43 188.64Q94.43 186.07 91.62 186.07Q90.38 186.07 89.61 186.53Q88.84 186.98 88.79 187.80L86.63 187.80Q86.75 186.24 88.08 185.22Q89.42 184.20 91.62 184.20Q94.02 184.20 95.31 185.35Q96.59 186.50 96.59 188.57L96.59 197.64L94.46 197.64L94.46 195.24L94.41 195.24Q94.22 196.46 93.18 197.17Q92.15 197.88 90.45 197.88M90.98 196.06Q92.56 196.06 93.50 195.29Q94.43 194.52 94.43 193.20L94.43 191.35L90.59 191.35Q89.54 191.35 88.88 191.99Q88.22 192.62 88.22 193.68Q88.22 194.78 88.95 195.42Q89.68 196.06 90.98 196.06" fill="white" fill-opacity="0.7"/>
<path d="M103.65 197.64L101.49 197.64L101.49 184.44L103.65 184.44L103.65 186.96L103.70 186.96Q103.86 185.69 104.78 184.94Q105.69 184.20 107.22 184.20Q109.29 184.20 110.40 185.44Q111.52 186.67 111.52 188.95L111.52 190.08L109.36 190.08L109.36 188.95Q109.36 186.07 106.55 186.07Q105.14 186.07 104.39 186.89Q103.65 187.70 103.65 189.24" fill="white" fill-opacity="0.7"/>
<path d="M117.57 197.64L115.41 197.64L115.41 184.44L117.57 184.44L117.57 186.96L117.59 186.96Q117.76 185.64 118.67 184.92Q119.58 184.20 121.10 184.20Q123.09 184.20 124.26 185.42Q125.44 186.65 125.44 188.76L125.44 197.64L123.28 197.64L123.28 189.14Q123.28 187.63 122.52 186.83Q121.77 186.02 120.47 186.02Q119.13 186.02 118.35 186.86Q117.57 187.70 117.57 189.24" fill="white" fill-opacity="0.7"/>
<path d="M133.65 197.88Q131.61 197.88 130.41 196.74Q129.21 195.60 129.21 193.75Q129.21 192.53 129.76 191.62Q130.31 190.70 131.30 190.19Q132.28 189.67 133.55 189.67L137.63 189.67L137.63 188.64Q137.63 186.07 134.82 186.07Q133.58 186.07 132.81 186.53Q132.04 186.98 131.99 187.80L129.83 187.80Q129.95 186.24 131.28 185.22Q132.62 184.20 134.82 184.20Q137.22 184.20 138.51 185.35Q139.79 186.50 139.79 188.57L139.79 197.64L137.66 197.64L137.66 195.24L137.61 195.24Q137.42 196.46 136.38 197.17Q135.35 197.88 133.65 197.88M134.18 196.06Q135.76 196.06 136.70 195.29Q137.63 194.52 137.63 193.20L137.63 191.35L133.79 191.35Q132.74 191.35 132.08 191.99Q131.42 192.62 131.42 193.68Q131.42 194.78 132.15 195.42Q132.88 196.06 134.18 196.06" fill="white" fill-opacity="0.7"/>
<path d="M154.36 197.64L150.52 197.64Q148.89 197.64 147.90 196.69Q146.92 195.74 146.92 194.16L146.92 186.41L143.13 186.41L143.13 184.44L146.92 184.44L146.92 180.72L149.08 180.72L149.08 184.44L154.48 184.44L154.48 186.41L149.08 186.41L149.08 194.16Q149.08 194.83 149.48 195.25Q149.87 195.67 150.52 195.67L154.36 195.67" fill="white" fill-opacity="0.7"/>
<path d="M162.45 197.88Q160.41 197.88 159.21 196.74Q158.01 195.60 158.01 193.75Q158.01 192.53 158.56 191.62Q159.11 190.70 160.10 190.19Q161.08 189.67 162.35 189.67L166.43 189.67L166.43 188.64Q166.43 186.07 163.62 186.07Q162.38 186.07 161.61 186.53Q160.84 186.98 160.79 187.80L158.63 187.80Q158.75 186.24 160.08 185.22Q161.42 184.20 163.62 184.20Q166.02 184.20 167.31 185.35Q168.59 186.50 168.59 188.57L168.59 197.64L166.46 197.64L166.46 195.24L166.41 195.24Q166.22 196.46 165.18 197.17Q164.15 197.88 162.45 197.88M162.98 196.06Q164.56 196.06 165.50 195.29Q166.43 194.52 166.43 193.20L166.43 191.35L162.59 191.35Q161.54 191.35 160.88 191.99Q160.22 192.62 160.22 193.68Q160.22 194.78 160.95 195.42Q161.68 196.06 162.98 196.06" fill="white" fill-opacity="0.7"/>
<path d="M175.29 197.64L173.13 197.64L173.13 180.12L175.29 180.12L175.29 189.89L177.81 189.89L181.50 184.44L183.98 184.44L179.73 190.73L184.22 197.64L181.70 197.64L177.86 191.76L175.29 191.76" fill="white" fill-opacity="0.7"/>
<path d="M191.25 197.88Q189.21 197.88 188.01 196.74Q186.81 195.60 186.81 193.75Q186.81 192.53 187.36 191.62Q187.91 190.70 188.90 190.19Q189.88 189.67 191.15 189.67L195.23 189.67L195.23 188.64Q195.23 186.07 192.42 186.07Q191.18 186.07 190.41 186.53Q189.64 186.98 189.59 187.80L187.43 187.80Q187.55 186.24 188.88 185.22Q190.22 184.20 192.42 184.20Q194.82 184.20 196.11 185.35Q197.39 186.50 197.39 188.57L197.39 197.64L195.26 197.64L195.26 195.24L195.21 195.24Q195.02 196.46 193.98 197.17Q192.95 197.88 191.25 197.88M191.78 196.06Q193.36 196.06 194.30 195.29Q195.23 194.52 195.23 193.20L195.23 191.35L191.39 191.35Q190.34 191.35 189.68 191.99Q189.02 192.62 189.02 193.68Q189.02 194.78 189.75 195.42Q190.48 196.06 191.78 196.06" fill="white" fill-opacity="0.7"/>
<path d="M227.20 197.64L217.12 197.64L217.12 180.12L219.28 180.12L219.28 195.67L227.20 195.67" fill="white" fill-opacity="0.7"/>
<path d="M234.45 197.88Q232.41 197.88 231.21 196.74Q230.01 195.60 230.01 193.75Q230.01 192.53 230.56 191.62Q231.11 190.70 232.10 190.19Q233.08 189.67 234.35 189.67L238.43 189.67L238.43 188.64Q238.43 186.07 235.62 186.07Q234.38 186.07 233.61 186.53Q232.84 186.98 232.79 187.80L230.63 187.80Q230.75 186.24 232.08 185.22Q233.42 184.20 235.62 184.20Q238.02 184.20 239.31 185.35Q240.59 186.50 240.59 188.57L240.59 197.64L238.46 197.64L238.46 195.24L238.41 195.24Q238.22 196.46 237.18 197.17Q236.15 197.88 234.45 197.88M234.98 196.06Q236.56 196.06 237.50 195.29Q238.43 194.52 238.43 193.20L238.43 191.35L234.59 191.35Q233.54 191.35 232.88 191.99Q232.22 192.62 232.22 193.68Q232.22 194.78 232.95 195.42Q233.68 196.06 234.98 196.06" fill="white" fill-opacity="0.7"/>
<path d="M247.17 197.64L245.01 197.64L245.01 184.44L247.17 184.44L247.17 186.96L247.19 186.96Q247.36 185.64 248.27 184.92Q249.18 184.20 250.70 184.20Q252.69 184.20 253.86 185.42Q255.04 186.65 255.04 188.76L255.04 197.64L252.88 197.64L252.88 189.14Q252.88 187.63 252.12 186.83Q251.37 186.02 250.07 186.02Q248.73 186.02 247.95 186.86Q247.17 187.70 247.17 189.24" fill="white" fill-opacity="0.7"/>
<path d="M263.63 197.88Q261.66 197.88 260.48 196.56Q259.29 195.24 259.29 192.98L259.29 189.12Q259.29 186.84 260.46 185.52Q261.64 184.20 263.63 184.20Q265.12 184.20 266.09 184.94Q267.06 185.69 267.26 186.96L267.28 186.96L267.23 183.96L267.23 180.12L269.39 180.12L269.39 197.64L267.23 197.64L267.23 195.12L267.21 195.12Q267.04 196.42 266.08 197.15Q265.12 197.88 263.63 197.88M264.35 196.01Q265.70 196.01 266.46 195.17Q267.23 194.33 267.23 192.84L267.23 189.24Q267.23 187.75 266.46 186.91Q265.70 186.07 264.35 186.07Q262.98 186.07 262.22 186.78Q261.45 187.49 261.45 189.12L261.45 192.96Q261.45 194.57 262.22 195.29Q262.98 196.01 264.35 196.01" fill="white" fill-opacity="0.7"/>
<path d="M290.37 197.64L288.23 197.64L288.23 180.12L293.63 180.12Q295.19 180.12 296.37 180.76Q297.54 181.39 298.19 182.52Q298.84 183.65 298.84 185.16Q298.84 186.94 297.93 188.21Q297.02 189.48 295.50 189.98L299.08 197.64L296.70 197.64L293.27 190.20L290.37 190.20L290.37 197.64M290.37 182.06L290.37 188.26L293.63 188.26Q294.98 188.26 295.79 187.40Q296.61 186.55 296.61 185.16Q296.61 183.74 295.79 182.90Q294.98 182.06 293.63 182.06" fill="white" fill-opacity="0.7"/>
<path d="M307.60 197.88Q305.27 197.88 303.84 196.48Q302.42 195.07 302.42 192.60L302.42 189.48Q302.42 187.01 303.84 185.60Q305.27 184.20 307.60 184.20Q309.16 184.20 310.32 184.82Q311.49 185.45 312.14 186.58Q312.78 187.70 312.78 189.24L312.78 191.59L304.53 191.59L304.53 192.84Q304.53 194.30 305.37 195.16Q306.21 196.01 307.60 196.01Q308.80 196.01 309.58 195.54Q310.36 195.07 310.53 194.28L312.69 194.28Q312.47 195.94 311.08 196.91Q309.69 197.88 307.60 197.88M304.53 189.24L304.53 189.91L310.67 189.91L310.67 189.24Q310.67 187.68 309.87 186.83Q309.06 185.98 307.60 185.98Q306.14 185.98 305.33 186.83Q304.53 187.68 304.53 189.24" fill="white" fill-opacity="0.7"/>
<path d="M322.19 197.88Q319.79 197.88 318.35 196.54Q316.91 195.19 316.91 192.84L316.91 189.24Q316.91 186.89 318.35 185.54Q319.79 184.20 322.19 184.20Q324.47 184.20 325.88 185.42Q327.28 186.65 327.35 188.76L325.19 188.76Q325.12 187.49 324.33 186.80Q323.54 186.12 322.19 186.12Q320.78 186.12 319.92 186.92Q319.07 187.73 319.07 189.22L319.07 192.84Q319.07 194.33 319.92 195.14Q320.78 195.96 322.19 195.96Q323.54 195.96 324.33 195.26Q325.12 194.57 325.19 193.32L327.35 193.32Q327.28 195.43 325.88 196.66Q324.47 197.88 322.19 197.88" fill="white" fill-opacity="0.7"/>
<path d="M336.40 197.83Q334.02 197.83 332.62 196.44Q331.22 195.05 331.22 192.55L331.22 189.53Q331.22 187.01 332.61 185.63Q334 184.25 336.40 184.25Q338.80 184.25 340.19 185.63Q341.58 187.01 341.58 189.53L341.58 192.55Q341.58 195.05 340.18 196.44Q338.78 197.83 336.40 197.83M336.40 195.91Q337.82 195.91 338.62 195.12Q339.42 194.33 339.42 192.79L339.42 189.29Q339.42 187.75 338.62 186.96Q337.82 186.17 336.40 186.17Q335.01 186.17 334.19 186.96Q333.38 187.75 333.38 189.29L333.38 192.79Q333.38 194.33 334.19 195.12Q335.01 195.91 336.40 195.91" fill="white" fill-opacity="0.7"/>
<path d="M348.45 197.64L346.29 197.64L346.29 184.44L348.45 184.44L348.45 186.96L348.50 186.96Q348.66 185.69 349.58 184.94Q350.49 184.20 352.02 184.20Q354.09 184.20 355.20 185.44Q356.32 186.67 356.32 188.95L356.32 190.08L354.16 190.08L354.16 188.95Q354.16 186.07 351.35 186.07Q349.94 186.07 349.19 186.89Q348.45 187.70 348.45 189.24" fill="white" fill-opacity="0.7"/>
<path d="M364.43 197.88Q362.46 197.88 361.28 196.56Q360.09 195.24 360.09 192.98L360.09 189.12Q360.09 186.84 361.26 185.52Q362.44 184.20 364.43 184.20Q365.92 184.20 366.89 184.94Q367.86 185.69 368.06 186.96L368.08 186.96L368.03 183.96L368.03 180.12L370.19 180.12L370.19 197.64L368.03 197.64L368.03 195.12L368.01 195.12Q367.84 196.42 366.88 197.15Q365.92 197.88 364.43 197.88M365.15 196.01Q366.50 196.01 367.26 195.17Q368.03 194.33 368.03 192.84L368.03 189.24Q368.03 187.75 367.26 186.91Q366.50 186.07 365.15 186.07Q363.78 186.07 363.02 186.78Q362.25 187.49 362.25 189.12L362.25 192.96Q362.25 194.57 363.02 195.29Q363.78 196.01 365.15 196.01" fill="white" fill-opacity="0.7"/>
<path d="M380.13 197.83L379.07 197.83Q376.86 197.83 375.65 196.84Q374.44 195.84 374.44 194.02L376.60 194.02Q376.60 194.93 377.25 195.44Q377.90 195.96 379.07 195.96L380.13 195.96Q381.33 195.96 381.99 195.43Q382.65 194.90 382.65 193.94Q382.65 192.24 381.09 192.02L377.44 191.50Q376.10 191.30 375.35 190.38Q374.61 189.46 374.61 187.94Q374.61 186.22 375.80 185.23Q376.98 184.25 379.07 184.25L380.13 184.25Q382.05 184.25 383.26 185.20Q384.47 186.14 384.57 187.68L382.38 187.68Q382.34 186.98 381.72 186.53Q381.11 186.07 380.13 186.07L379.07 186.07Q377.97 186.07 377.34 186.58Q376.72 187.08 376.72 187.94Q376.72 189.34 377.99 189.53L381.40 190.01Q384.76 190.49 384.76 193.94Q384.76 195.79 383.55 196.81Q382.34 197.83 380.13 197.83" fill="white" fill-opacity="0.7"/>
<path d="M404.61 197.64L402.40 197.64L406.96 180.12L409.86 180.12L414.40 197.64L412.22 197.64L411.06 192.98L405.76 192.98L404.61 197.64M407.54 185.74L406.19 191.16L410.61 191.16L409.26 185.76Q408.88 184.22 408.66 183.19Q408.45 182.16 408.40 181.85Q408.35 182.16 408.14 183.19Q407.92 184.22 407.54 185.74" fill="white" fill-opacity="0.7"/>
<path d="M419.97 197.64L417.81 197.64L417.81 180.12L423.45 180.12Q425.90 180.12 427.35 181.52Q428.80 182.93 428.80 185.28Q428.80 187.63 427.35 189.04Q425.90 190.44 423.45 190.44L419.97 190.44L419.97 197.64M419.97 182.06L419.97 188.50L423.45 188.50Q424.86 188.50 425.72 187.62Q426.57 186.74 426.57 185.28Q426.57 183.79 425.72 182.93Q424.86 182.06 423.45 182.06" fill="white" fill-opacity="0.7"/>
<path d="M441.88 197.64L432.52 197.64L432.52 195.67L436.10 195.67L436.10 182.09L432.52 182.09L432.52 180.12L441.88 180.12L441.88 182.09L438.30 182.09L438.30 195.67L441.88 195.67" fill="white" fill-opacity="0.7"/>
<path d="M452.13 197.83L451.07 197.83Q448.86 197.83 447.65 196.84Q446.44 195.84 446.44 194.02L448.60 194.02Q448.60 194.93 449.25 195.44Q449.90 195.96 451.07 195.96L452.13 195.96Q453.33 195.96 453.99 195.43Q454.65 194.90 454.65 193.94Q454.65 192.24 453.09 192.02L449.44 191.50Q448.10 191.30 447.35 190.38Q446.61 189.46 446.61 187.94Q446.61 186.22 447.80 185.23Q448.98 184.25 451.07 184.25L452.13 184.25Q454.05 184.25 455.26 185.20Q456.47 186.14 456.57 187.68L454.38 187.68Q454.34 186.98 453.72 186.53Q453.11 186.07 452.13 186.07L451.07 186.07Q449.97 186.07 449.34 186.58Q448.72 187.08 448.72 187.94Q448.72 189.34 449.99 189.53L453.40 190.01Q456.76 190.49 456.76 193.94Q456.76 195.79 455.55 196.81Q454.34 197.83 452.13 197.83" fill="white" fill-opacity="0.7"/>
<path d="M481.17 197.88Q479.68 197.88 478.72 197.15Q477.76 196.42 477.59 195.12L477.57 195.12L477.57 197.64L475.41 197.64L475.41 180.12L477.57 180.12L477.57 183.96L477.52 186.96L477.54 186.96Q477.74 185.69 478.71 184.94Q479.68 184.20 481.17 184.20Q483.16 184.20 484.34 185.52Q485.51 186.84 485.51 189.12L485.51 192.98Q485.51 195.24 484.34 196.56Q483.16 197.88 481.17 197.88M480.45 196.01Q481.82 196.01 482.58 195.29Q483.35 194.57 483.35 192.96L483.35 189.12Q483.35 187.49 482.58 186.78Q481.82 186.07 480.45 186.07Q479.13 186.07 478.35 186.91Q477.57 187.75 477.57 189.24L477.57 192.84Q477.57 194.33 478.35 195.17Q479.13 196.01 480.45 196.01" fill="white" fill-opacity="0.7"/>
<path d="M494.13 201.96L491.87 201.96L493.82 196.82L488.90 184.44L491.22 184.44L494.34 192.60Q494.54 193.08 494.70 193.61Q494.87 194.14 494.94 194.52Q495.02 194.14 495.18 193.61Q495.35 193.08 495.52 192.60L498.42 184.44L500.70 184.44" fill="white" fill-opacity="0.7"/>
<path d="M520.77 197.64L518.63 197.64L518.63 180.12L524.03 180.12Q525.59 180.12 526.77 180.76Q527.94 181.39 528.59 182.52Q529.24 183.65 529.24 185.16Q529.24 186.94 528.33 188.21Q527.42 189.48 525.90 189.98L529.48 197.64L527.10 197.64L523.67 190.20L520.77 190.20L520.77 197.64M520.77 182.06L520.77 188.26L524.03 188.26Q525.38 188.26 526.19 187.40Q527.01 186.55 527.01 185.16Q527.01 183.74 526.19 182.90Q525.38 182.06 524.03 182.06" fill="white" fill-opacity="0.7"/>
<path d="M538 197.88Q535.67 197.88 534.24 196.48Q532.82 195.07 532.82 192.60L532.82 189.48Q532.82 187.01 534.24 185.60Q535.67 184.20 538 184.20Q539.56 184.20 540.72 184.82Q541.89 185.45 542.54 186.58Q543.18 187.70 543.18 189.24L543.18 191.59L534.93 191.59L534.93 192.84Q534.93 194.30 535.77 195.16Q536.61 196.01 538 196.01Q539.20 196.01 539.98 195.54Q540.76 195.07 540.93 194.28L543.09 194.28Q542.87 195.94 541.48 196.91Q540.09 197.88 538 197.88M534.93 189.24L534.93 189.91L541.07 189.91L541.07 189.24Q541.07 187.68 540.27 186.83Q539.46 185.98 538 185.98Q536.54 185.98 535.73 186.83Q534.93 187.68 534.93 189.24" fill="white" fill-opacity="0.7"/>
<path d="M553.82 197.64L550.98 197.64L546.50 184.44L548.82 184.44L551.70 193.32Q551.97 194.11 552.16 194.84Q552.35 195.58 552.45 195.98Q552.57 195.58 552.74 194.84Q552.90 194.11 553.14 193.32L556.02 184.44L558.30 184.44" fill="white" fill-opacity="0.7"/>
<path d="M566.80 197.88Q564.47 197.88 563.04 196.48Q561.62 195.07 561.62 192.60L561.62 189.48Q561.62 187.01 563.04 185.60Q564.47 184.20 566.80 184.20Q568.36 184.20 569.52 184.82Q570.69 185.45 571.34 186.58Q571.98 187.70 571.98 189.24L571.98 191.59L563.73 191.59L563.73 192.84Q563.73 194.30 564.57 195.16Q565.41 196.01 566.80 196.01Q568 196.01 568.78 195.54Q569.56 195.07 569.73 194.28L571.89 194.28Q571.67 195.94 570.28 196.91Q568.89 197.88 566.80 197.88M563.73 189.24L563.73 189.91L569.87 189.91L569.87 189.24Q569.87 187.68 569.07 186.83Q568.26 185.98 566.80 185.98Q565.34 185.98 564.53 186.83Q563.73 187.68 563.73 189.24" fill="white" fill-opacity="0.7"/>
<path d="M578.37 197.64L576.21 197.64L576.21 184.44L578.37 184.44L578.37 186.96L578.39 186.96Q578.56 185.64 579.47 184.92Q580.38 184.20 581.90 184.20Q583.89 184.20 585.06 185.42Q586.24 186.65 586.24 188.76L586.24 197.64L584.08 197.64L584.08 189.14Q584.08 187.63 583.32 186.83Q582.57 186.02 581.27 186.02Q579.93 186.02 579.15 186.86Q578.37 187.70 578.37 189.24" fill="white" fill-opacity="0.7"/>
<path d="M595.58 197.88Q593.30 197.88 591.93 196.52Q590.56 195.17 590.56 192.84L590.56 184.44L592.72 184.44L592.72 192.84Q592.72 194.28 593.49 195.13Q594.26 195.98 595.58 195.98Q596.92 195.98 597.70 195.13Q598.48 194.28 598.48 192.84L598.48 184.44L600.64 184.44L600.64 192.84Q600.64 195.17 599.25 196.52Q597.86 197.88 595.58 197.88" fill="white" fill-opacity="0.7"/>
<path d="M610 197.88Q607.67 197.88 606.24 196.48Q604.82 195.07 604.82 192.60L604.82 189.48Q604.82 187.01 606.24 185.60Q607.67 184.20 610 184.20Q611.56 184.20 612.72 184.82Q613.89 185.45 614.54 186.58Q615.18 187.70 615.18 189.24L615.18 191.59L606.93 191.59L606.93 192.84Q606.93 194.30 607.77 195.16Q608.61 196.01 610 196.01Q611.20 196.01 611.98 195.54Q612.76 195.07 612.93 194.28L615.09 194.28Q614.87 195.94 613.48 196.91Q612.09 197.88 610 197.88M606.93 189.24L606.93 189.91L613.07 189.91L613.07 189.24Q613.07 187.68 612.27 186.83Q611.46 185.98 610 185.98Q608.54 185.98 607.73 186.83Q606.93 187.68 606.93 189.24" fill="white" fill-opacity="0.7"/>
<path d="M638.34 197.64L633.81 197.64L633.81 180.12L638.34 180.12Q640.05 180.12 641.28 180.77Q642.52 181.42 643.20 182.59Q643.89 183.77 643.89 185.38L643.89 192.36Q643.89 193.97 643.20 195.16Q642.52 196.34 641.28 196.99Q640.05 197.64 638.34 197.64M635.97 182.04L635.97 195.72L638.34 195.72Q639.93 195.72 640.83 194.83Q641.73 193.94 641.73 192.36L641.73 185.38Q641.73 183.82 640.83 182.93Q639.93 182.04 638.34 182.04" fill="white" fill-opacity="0.7"/>
<path d="M653.20 197.88Q650.87 197.88 649.44 196.48Q648.02 195.07 648.02 192.60L648.02 189.48Q648.02 187.01 649.44 185.60Q650.87 184.20 653.20 184.20Q654.76 184.20 655.92 184.82Q657.09 185.45 657.74 186.58Q658.38 187.70 658.38 189.24L658.38 191.59L650.13 191.59L650.13 192.84Q650.13 194.30 650.97 195.16Q651.81 196.01 653.20 196.01Q654.40 196.01 655.18 195.54Q655.96 195.07 656.13 194.28L658.29 194.28Q658.07 195.94 656.68 196.91Q655.29 197.88 653.20 197.88M650.13 189.24L650.13 189.91L656.27 189.91L656.27 189.24Q656.27 187.68 655.47 186.83Q654.66 185.98 653.20 185.98Q651.74 185.98 650.93 186.83Q650.13 187.68 650.13 189.24" fill="white" fill-opacity="0.7"/>
<path d="M664.77 201.96L662.61 201.96L662.61 184.44L664.77 184.44L664.77 186.96L664.79 186.96Q664.96 185.66 665.92 184.93Q666.88 184.20 668.37 184.20Q670.36 184.20 671.54 185.51Q672.71 186.82 672.71 189.10L672.71 192.96Q672.71 195.24 671.54 196.56Q670.36 197.88 668.37 197.88Q666.88 197.88 665.92 197.14Q664.96 196.39 664.79 195.12L664.72 195.12L664.77 198.12L664.77 201.96M667.65 196.01Q669.02 196.01 669.78 195.29Q670.55 194.57 670.55 192.96L670.55 189.12Q670.55 187.49 669.78 186.78Q669.02 186.07 667.65 186.07Q666.33 186.07 665.55 186.91Q664.77 187.75 664.77 189.24L664.77 192.84Q664.77 194.33 665.55 195.17Q666.33 196.01 667.65 196.01" fill="white" fill-opacity="0.7"/>
<path d="M680.85 197.88Q678.81 197.88 677.61 196.74Q676.41 195.60 676.41 193.75Q676.41 192.53 676.96 191.62Q677.51 190.70 678.50 190.19Q679.48 189.67 680.75 189.67L684.83 189.67L684.83 188.64Q684.83 186.07 682.02 186.07Q680.78 186.07 680.01 186.53Q679.24 186.98 679.19 187.80L677.03 187.80Q677.15 186.24 678.48 185.22Q679.82 184.20 682.02 184.20Q684.42 184.20 685.71 185.35Q686.99 186.50 686.99 188.57L686.99 197.64L684.86 197.64L684.86 195.24L684.81 195.24Q684.62 196.46 683.58 197.17Q682.55 197.88 680.85 197.88M681.38 196.06Q682.96 196.06 683.90 195.29Q684.83 194.52 684.83 193.20L684.83 191.35L680.99 191.35Q679.94 191.35 679.28 191.99Q678.62 192.62 678.62 193.68Q678.62 194.78 679.35 195.42Q680.08 196.06 681.38 196.06" fill="white" fill-opacity="0.7"/>
<path d="M694.05 197.64L691.89 197.64L691.89 184.44L694.05 184.44L694.05 186.96L694.10 186.96Q694.26 185.69 695.18 184.94Q696.09 184.20 697.62 184.20Q699.69 184.20 700.80 185.44Q701.92 186.67 701.92 188.95L701.92 190.08L699.76 190.08L699.76 188.95Q699.76 186.07 696.95 186.07Q695.54 186.07 694.79 186.89Q694.05 187.70 694.05 189.24" fill="white" fill-opacity="0.7"/>
<path d="M715.96 197.64L712.12 197.64Q710.49 197.64 709.50 196.69Q708.52 195.74 708.52 194.16L708.52 186.41L704.73 186.41L704.73 184.44L708.52 184.44L708.52 180.72L710.68 180.72L710.68 184.44L716.08 184.44L716.08 186.41L710.68 186.41L710.68 194.16Q710.68 194.83 711.08 195.25Q711.47 195.67 712.12 195.67L715.96 195.67" fill="white" fill-opacity="0.7"/>
<path d="M721.46 197.64L719.44 197.64L719.44 184.44L721.31 184.44L721.31 186.19L721.36 186.19Q721.48 185.30 722.07 184.75Q722.66 184.20 723.57 184.20Q724.43 184.20 725.03 184.70Q725.63 185.21 725.90 186.07L725.92 186.07Q726.09 185.21 726.68 184.70Q727.26 184.20 728.18 184.20Q729.45 184.20 730.20 185.15Q730.96 186.10 730.96 187.61L730.96 197.64L728.94 197.64L728.94 187.58Q728.94 186.79 728.56 186.32Q728.18 185.86 727.50 185.86Q726.86 185.86 726.47 186.31Q726.09 186.77 726.09 187.56L726.09 197.64L724.31 197.64L724.31 187.58Q724.31 186.79 723.93 186.32Q723.54 185.86 722.90 185.86Q722.22 185.86 721.84 186.31Q721.46 186.77 721.46 187.56" fill="white" fill-opacity="0.7"/>
<path d="M739.60 197.88Q737.27 197.88 735.84 196.48Q734.42 195.07 734.42 192.60L734.42 189.48Q734.42 187.01 735.84 185.60Q737.27 184.20 739.60 184.20Q741.16 184.20 742.32 184.82Q743.49 185.45 744.14 186.58Q744.78 187.70 744.78 189.24L744.78 191.59L736.53 191.59L736.53 192.84Q736.53 194.30 737.37 195.16Q738.21 196.01 739.60 196.01Q740.80 196.01 741.58 195.54Q742.36 195.07 742.53 194.28L744.69 194.28Q744.47 195.94 743.08 196.91Q741.69 197.88 739.60 197.88M736.53 189.24L736.53 189.91L742.67 189.91L742.67 189.24Q742.67 187.68 741.87 186.83Q741.06 185.98 739.60 185.98Q738.14 185.98 737.33 186.83Q736.53 187.68 736.53 189.24" fill="white" fill-opacity="0.7"/>
<path d="M751.17 197.64L749.01 197.64L749.01 184.44L751.17 184.44L751.17 186.96L751.19 186.96Q751.36 185.64 752.27 184.92Q753.18 184.20 754.70 184.20Q756.69 184.20 757.86 185.42Q759.04 186.65 759.04 188.76L759.04 197.64L756.88 197.64L756.88 189.14Q756.88 187.63 756.12 186.83Q755.37 186.02 754.07 186.02Q752.73 186.02 751.95 186.86Q751.17 187.70 751.17 189.24" fill="white" fill-opacity="0.7"/>
<path d="M773.56 197.64L769.72 197.64Q768.09 197.64 767.10 196.69Q766.12 195.74 766.12 194.16L766.12 186.41L762.33 186.41L762.33 184.44L766.12 184.44L766.12 180.72L768.28 180.72L768.28 184.44L773.68 184.44L773.68 186.41L768.28 186.41L768.28 194.16Q768.28 194.83 768.68 195.25Q769.07 195.67 769.72 195.67L773.56 195.67" fill="white" fill-opacity="0.7"/>
<path d="M782.80 197.88Q781.91 197.88 781.37 197.35Q780.83 196.82 780.83 195.98Q780.83 195.10 781.37 194.54Q781.91 193.99 782.80 193.99Q783.69 193.99 784.23 194.54Q784.77 195.10 784.77 195.98Q784.77 196.82 784.23 197.35Q783.69 197.88 782.80 197.88" fill="white" fill-opacity="0.7"/>
<path d="M76.11 136.06L66.42 136.06L84.56 65.98L97.14 65.98L115.18 136.06L105.49 136.06L101.07 117.82L80.53 117.82L76.11 136.06M87.54 88.92L82.45 109.95L99.15 109.95L94.16 89.02Q92.72 83.26 91.86 79.23Q90.99 75.20 90.80 73.76Q90.61 75.20 89.74 79.23Q88.88 83.26 87.54 88.92M137.55 136.06L128.05 136.06L128.05 65.98L150.80 65.98Q157.52 65.98 162.42 68.57Q167.31 71.16 170 75.82Q172.69 80.48 172.69 86.91Q172.69 93.24 170 97.90Q167.31 102.56 162.37 105.15Q157.42 107.74 150.80 107.74L137.55 107.74L137.55 136.06M137.55 74.43L137.55 99.29L150.80 99.29Q156.37 99.29 159.63 95.88Q162.90 92.48 162.90 86.91Q162.90 81.24 159.63 77.84Q156.37 74.43 150.80 74.43L137.55 74.43M225.10 136.06L186.90 136.06L186.90 127.42L201.20 127.42L201.20 74.62L186.90 74.62L186.90 65.98L225.10 65.98L225.10 74.62L210.80 74.62L210.80 127.42L225.10 127.42L225.10 136.06M263.98 137.02Q253.62 137.02 247.47 131.60Q241.33 126.17 241.33 116.67L250.83 116.67Q250.83 122.24 254.38 125.40Q257.94 128.57 263.98 128.57Q269.74 128.57 273.15 125.36Q276.56 122.14 276.56 116.76Q276.56 112.73 274.35 109.71Q272.14 106.68 268.11 105.63L257.74 102.84Q250.93 100.92 246.94 95.88Q242.96 90.84 242.96 83.93Q242.96 78.27 245.50 74Q248.05 69.72 252.66 67.37Q257.26 65.02 263.31 65.02Q269.46 65.02 274.11 67.37Q278.77 69.72 281.36 73.95Q283.95 78.17 283.95 83.74L274.54 83.74Q274.54 79.13 271.42 76.25Q268.30 73.37 263.31 73.37Q258.32 73.37 255.30 76.25Q252.27 79.13 252.27 83.74Q252.27 87.48 254.29 90.03Q256.30 92.57 259.95 93.63L270.61 96.51Q277.81 98.43 281.84 103.85Q285.87 109.28 285.87 116.76Q285.87 122.91 283.18 127.47Q280.50 132.03 275.55 134.52Q270.61 137.02 263.98 137.02M342.51 136.06L301.71 136.06L301.71 65.98L342.51 65.98L342.51 74.52L311.12 74.52L311.12 95.36L339.15 95.36L339.15 103.61L311.12 103.61L311.12 127.52L342.51 127.52L342.51 136.06M383.60 136.06L374.10 136.06L374.10 74.62L355.09 74.62L355.09 65.98L402.51 65.98L402.51 74.62L383.60 74.62L383.60 136.06M436.40 137.02Q426.51 137.02 421.18 131.55Q415.86 126.08 415.86 116.67L415.86 65.98L425.36 65.98L425.36 116.67Q425.36 122.24 428.10 125.40Q430.83 128.57 436.40 128.57Q441.87 128.57 444.70 125.40Q447.54 122.24 447.54 116.67L447.54 65.98L457.04 65.98L457.04 116.67Q457.04 126.17 451.71 131.60Q446.38 137.02 436.40 137.02M551.98 137.02Q542.29 137.02 536.58 131.60Q530.86 126.17 530.86 116.67L530.86 85.28Q530.86 75.87 536.58 70.44Q542.29 65.02 551.98 65.02Q561.58 65.02 567.30 70.49Q573.01 75.96 573.01 85.28L563.50 85.28Q563.50 79.61 560.43 76.54Q557.36 73.47 551.98 73.47Q546.51 73.47 543.44 76.54Q540.37 79.61 540.37 85.28L540.37 116.67Q540.37 122.43 543.44 125.50Q546.51 128.57 551.98 128.57Q557.36 128.57 560.43 125.50Q563.50 122.43 563.50 116.67L563.50 107.55L549.87 107.55L549.87 99.10L573.01 99.10L573.01 116.67Q573.01 126.08 567.30 131.55Q561.58 137.02 551.98 137.02M609.20 137.02Q599.60 137.02 594.03 131.45Q588.46 125.88 588.46 115.71L588.46 86.24Q588.46 76.16 594.03 70.59Q599.60 65.02 609.20 65.02Q618.80 65.02 624.37 70.54Q629.94 76.06 629.94 86.24L629.94 115.71Q629.94 125.88 624.37 131.45Q618.80 137.02 609.20 137.02M609.20 128.57Q614.58 128.57 617.50 125.50Q620.43 122.43 620.43 116.67L620.43 85.28Q620.43 79.61 617.55 76.54Q614.67 73.47 609.20 73.47Q603.73 73.47 600.85 76.54Q597.97 79.61 597.97 85.28L597.97 116.67Q597.97 122.43 600.90 125.50Q603.82 128.57 609.20 128.57M673.14 136.06L660.37 136.06L642.42 65.98L652.21 65.98L663.82 113.21Q664.98 117.72 665.79 121.90Q666.61 126.08 666.99 128.28Q667.28 126.08 668.19 121.85Q669.10 117.63 670.16 113.12L681.39 65.98L691.18 65.98L673.14 136.06M806.19 136.06L765.49 136.06L765.49 65.98L774.99 65.98L774.99 127.42L806.19 127.42L806.19 136.06M824.91 136.06L815.22 136.06L833.36 65.98L845.94 65.98L863.98 136.06L854.29 136.06L849.87 117.82L829.33 117.82L824.91 136.06M836.34 88.92L831.25 109.95L847.95 109.95L842.96 89.02Q841.52 83.26 840.66 79.23Q839.79 75.20 839.60 73.76Q839.41 75.20 838.54 79.23Q837.68 83.26 836.34 88.92M885.58 136.06L876.66 136.06L876.66 65.98L888.94 65.98L909.87 125.12Q909.58 122.62 909.34 118.92Q909.10 115.23 908.96 111.24Q908.82 107.26 908.82 103.71L908.82 65.98L917.84 65.98L917.84 136.06L905.46 136.06L884.72 76.92Q884.91 79.42 885.10 83.02Q885.30 86.62 885.44 90.56Q885.58 94.49 885.58 97.95L885.58 136.06M953.26 136.06L934.45 136.06L934.45 65.98L953.26 65.98Q960.08 65.98 965.12 68.62Q970.16 71.26 972.94 76.01Q975.73 80.76 975.73 87.20L975.73 114.75Q975.73 121.18 972.94 125.98Q970.16 130.78 965.12 133.42Q960.08 136.06 953.26 136.06M943.95 74.43L943.95 127.61L953.26 127.61Q959.31 127.61 962.77 124.16Q966.22 120.70 966.22 114.75L966.22 87.20Q966.22 81.24 962.77 77.84Q959.31 74.43 953.26 74.43L943.95 74.43M1001.55 136.06L992.14 136.06L992.14 65.98L1013.84 65.98Q1020.27 65.98 1025.07 68.52Q1029.87 71.07 1032.56 75.63Q1035.25 80.19 1035.25 86.33Q1035.25 93.44 1031.65 98.52Q1028.05 103.61 1022.10 105.72L1036.21 136.06L1025.74 136.06L1012.40 106.78L1001.55 106.78L1001.55 136.06M1001.55 74.43L1001.55 98.33L1013.84 98.33Q1019.22 98.33 1022.34 95.07Q1025.46 91.80 1025.46 86.43Q1025.46 80.96 1022.29 77.69Q1019.12 74.43 1013.84 74.43L1001.55 74.43M1091.31 136.06L1050.51 136.06L1050.51 65.98L1091.31 65.98L1091.31 74.52L1059.92 74.52L1059.92 95.36L1087.95 95.36L1087.95 103.61L1059.92 103.61L1059.92 127.52L1091.31 127.52L1091.31 136.06M1128.37 137.02Q1118.67 137.02 1112.96 131.60Q1107.25 126.17 1107.25 116.67L1107.25 85.28Q1107.25 75.87 1112.96 70.44Q1118.67 65.02 1128.37 65.02Q1137.97 65.02 1143.68 70.49Q1149.39 75.96 1149.39 85.28L1139.89 85.28Q1139.89 79.61 1136.82 76.54Q1133.74 73.47 1128.37 73.47Q1122.90 73.47 1119.82 76.54Q1116.75 79.61 1116.75 85.28L1116.75 116.67Q1116.75 122.43 1119.82 125.50Q1122.90 128.57 1128.37 128.57Q1133.74 128.57 1136.82 125.50Q1139.89 122.43 1139.89 116.67L1149.39 116.67Q1149.39 126.08 1143.68 131.55Q1137.97 137.02 1128.37 137.02M1185.20 137.02Q1175.60 137.02 1170.03 131.45Q1164.46 125.88 1164.46 115.71L1164.46 86.24Q1164.46 76.16 1170.03 70.59Q1175.60 65.02 1185.20 65.02Q1194.80 65.02 1200.37 70.54Q1205.94 76.06 1205.94 86.24L1205.94 115.71Q1205.94 125.88 1200.37 131.45Q1194.80 137.02 1185.20 137.02M1185.20 128.57Q1190.58 128.57 1193.50 125.50Q1196.43 122.43 1196.43 116.67L1196.43 85.28Q1196.43 79.61 1193.55 76.54Q1190.67 73.47 1185.20 73.47Q1179.73 73.47 1176.85 76.54Q1173.97 79.61 1173.97 85.28L1173.97 116.67Q1173.97 122.43 1176.90 125.50Q1179.82 128.57 1185.20 128.57M1231.95 136.06L1222.54 136.06L1222.54 65.98L1244.24 65.98Q1250.67 65.98 1255.47 68.52Q1260.27 71.07 1262.96 75.63Q1265.65 80.19 1265.65 86.33Q1265.65 93.44 1262.05 98.52Q1258.45 103.61 1252.50 105.72L1266.61 136.06L1256.14 136.06L1242.80 106.78L1231.95 106.78L1231.95 136.06M1231.95 74.43L1231.95 98.33L1244.24 98.33Q1249.62 98.33 1252.74 95.07Q1255.86 91.80 1255.86 86.43Q1255.86 80.96 1252.69 77.69Q1249.52 74.43 1244.24 74.43L1231.95 74.43M1298.86 136.06L1280.05 136.06L1280.05 65.98L1298.86 65.98Q1305.68 65.98 1310.72 68.62Q1315.76 71.26 1318.54 76.01Q1321.33 80.76 1321.33 87.20L1321.33 114.75Q1321.33 121.18 1318.54 125.98Q1315.76 130.78 1310.72 133.42Q1305.68 136.06 1298.86 136.06M1289.55 74.43L1289.55 127.61L1298.86 127.61Q1304.91 127.61 1308.37 124.16Q1311.82 120.70 1311.82 114.75L1311.82 87.20Q1311.82 81.24 1308.37 77.84Q1304.91 74.43 1298.86 74.43L1289.55 74.43M1358.38 137.02Q1348.02 137.02 1341.87 131.60Q1335.73 126.17 1335.73 116.67L1345.23 116.67Q1345.23 122.24 1348.78 125.40Q1352.34 128.57 1358.38 128.57Q1364.14 128.57 1367.55 125.36Q1370.96 122.14 1370.96 116.76Q1370.96 112.73 1368.75 109.71Q1366.54 106.68 1362.51 105.63L1352.14 102.84Q1345.33 100.92 1341.34 95.88Q1337.36 90.84 1337.36 83.93Q1337.36 78.27 1339.90 74Q1342.45 69.72 1347.06 67.37Q1351.66 65.02 1357.71 65.02Q1363.86 65.02 1368.51 67.37Q1373.17 69.72 1375.76 73.95Q1378.35 78.17 1378.35 83.74L1368.94 83.74Q1368.94 79.13 1365.82 76.25Q1362.70 73.37 1357.71 73.37Q1352.72 73.37 1349.70 76.25Q1346.67 79.13 1346.67 83.74Q1346.67 87.48 1348.69 90.03Q1350.70 92.57 1354.35 93.63L1365.01 96.51Q1372.21 98.43 1376.24 103.85Q1380.27 109.28 1380.27 116.76Q1380.27 122.91 1377.58 127.47Q1374.90 132.03 1369.95 134.52Q1365.01 137.02 1358.38 137.02M1404.75 136.06L1395.25 136.06L1395.25 65.98L1404.75 65.98L1404.75 95.74L1414.54 95.74L1429.52 65.98L1439.89 65.98L1422.90 99.68L1440.75 136.06L1430 136.06L1414.35 104.09L1404.75 104.09L1404.75 136.06M1458.51 136.06L1448.82 136.06L1466.96 65.98L1479.54 65.98L1497.58 136.06L1487.89 136.06L1483.47 117.82L1462.93 117.82L1458.51 136.06M1469.94 88.92L1464.85 109.95L1481.55 109.95L1476.56 89.02Q1475.12 83.26 1474.26 79.23Q1473.39 75.20 1473.20 73.76Q1473.01 75.20 1472.14 79.23Q1471.28 83.26 1469.94 88.92M1519.95 136.06L1510.54 136.06L1510.54 65.98L1532.24 65.98Q1538.67 65.98 1543.47 68.52Q1548.27 71.07 1550.96 75.63Q1553.65 80.19 1553.65 86.33Q1553.65 93.44 1550.05 98.52Q1546.45 103.61 1540.50 105.72L1554.61 136.06L1544.14 136.06L1530.80 106.78L1519.95 106.78L1519.95 136.06M1519.95 74.43L1519.95 98.33L1532.24 98.33Q1537.62 98.33 1540.74 95.07Q1543.86 91.80 1543.86 86.43Q1543.86 80.96 1540.69 77.69Q1537.52 74.43 1532.24 74.43" fill="url(#paint2_linear_0_1)"/>
<g id="Group 1">
<rect id="Rectangle 1" x="26" y="168" width="12" height="184" rx="5" fill="url(#paint3_linear_0_1)" fill-opacity="0.9"/>
</g>
<g id="Group 1_2">
<rect id="Rectangle 2" x="26" y="38" width="12" height="119" rx="5" fill="url(#paint4_linear_0_1)" fill-opacity="0.9"/>
</g>
<ellipse id="Ellipse 1" cx="148.5" cy="573" rx="215.5" ry="214" fill="url(#paint5_linear_0_1)" fill-opacity="0.4"/>
<rect id="Rectangle 3" x="1229" y="48" width="300" height="300" rx="25" fill="#FFFBFB" fill-opacity="0.9"/>
<g id="placeholder-logo"><g transform="translate(1229,48) translate(0.0,60.0) scale(1.2000)"><g fill="#666666">
  <path d="m88.05,27.65c-3.15,4 -3.2,51.2 -0.05,54.35c2.75,2.75 71.7,3.15 74.45,0.45c2.85,-2.9 2.3,-53.85 -0.65,-55.9c-1.95,-1.35 -7.15,-1.55 -36.95,-1.55l-34.7,0l-2.1,2.65zm69.45,3.35c0.65,0 1,8.6 1,23.75l0,23.75l-33,0l-33,0l-0.25,-23c-0.15,-12.6 -0.1,-23.45 0.15,-24.1c0.35,-0.85 8.9,-1.05 32.25,-0.75c17.55,0.2 32.3,0.35 32.85,0.35z"/>
  <path d="m99.15,37.3c-6.85,7.35 4.25,17.35 11.4,10.25c1.35,-1.35 2.45,-3.65 2.45,-5.05c0,-6.45 -9.35,-9.95 -13.85,-5.2z"/>
  <path d="m135,42.5c-0.7,0.85 -5.25,5.15 -10.1,9.6l-8.85,8.1l-3.2,-3.2l-3.15,-3.15l-6.35,6.3c-5.55,5.5 -6.35,6.75 -6.35,10.05l0,3.8l28.5,0l28.5,0l0,-8.6l0,-8.55l-8.15,-7.7c-9.35,-8.85 -9.15,-8.7 -10.85,-6.65zm7.25,15.2c0.95,0.9 1.75,2.9 1.75,4.45c6.35,-5.05 4.75,-7.15 4.9,-11.55c0.95,0 0,0 0,0l-6.65,7.1z"/>
  <path d="m53.65,110.75c0.1,4.8 0.45,8.65 0.75,8.5c0.35,-0.15 1.3,-0.25 2.1,-0.25c1.1,0 1.5,-1.2 1.5,-4.75l0,-4.75l3.25,5c4.9,7.5 6.2,6.75 6.55,-3.75c0.25,-8.15 0.15,-8.75 -1.7,-8.75c-1.65,0 -2.05,0.8 -2.3,4.75l-0.3,4.75l-2.8,-4.75c-4.85,-8.25 -7.25,-6.9 -7.05,4z"/>
  <path d="m91,108.9c0,9.65 0.3,10.1 6.1,10.1c5.8,0 7.15,-2.65 1.65,-3.2l-3.25,-0.3l-0.3,-6.75c-0.25,-5.95 -0.55,-6.75 -2.25,-6.75c-1.75,0 -1.95,0.7 -1.95,6.9z"/>
  <path d="m151,102.45c0,0.25 1,2.15 2.25,4.2c1.2,2.1 2.45,5.8 2.75,8.25c0.65,5.9 4,6.95 4,1.25c0.05,-2.1 1.25,-5.85 2.95,-8.9l2.9,-5.25l-2.5,0c-1.8,0 -2.8,0.85 -3.75,3.1l-1.3,3.05l-1.25,-3.05c-1.1,-2.6 -6.05,-4.8 -6.05,-2.65z"/>
  <path d="m191,107.45c0,9.05 3.4,8.85 4.25,-0.2c0.45,-5 0.35,-5.25 -1.9,-5.25c-2.2,0 -2.35,0.4 -2.35,5.45z"/>
  <path d="m180.8,104.75c-1.3,5.35 0.65,13.6 3.45,14.35c2.3,0.6 2.75,0.4 2.75,-1.2c0,-1.05 -0.45,-1.9 -1,-1.9c-0.55,0 -1,-1.6 -1,-3.5c0,-1.95 0.45,-3.5 1,-3.5c0.55,0 1,-0.7 1,-1.5c0,-0.85 -0.45,-1.5 -1,-1.5c-0.55,0 -1,-0.7 -1,-1.5c0,-2.1 -3.65,-1.9 -4.2,0.25z"/>
  <path d="m71.55,106.55c-2.2,2.25 -2.05,9.7 0.3,11.8c4.5,4.1 10.15,0.75 10.15,-6.1c0,-4.85 -2,-7.25 -6,-7.25c-1.55,0 -3.55,0.7 -4.45,1.55zm6.25,5.8c0.25,3.05 0,3.65 -1.6,3.65c-2.3,0 -3.25,-2.65 -2.05,-5.85c1.25,-3.35 3.3,-2.1 3.65,2.2z"/>
  <path d="m105.75,106.1c-2.5,1.45 -2.45,9.95 0.1,12.25c4.3,3.9 10.15,0.35 10.15,-6.2c0,-6 -5.15,-9.05 -10.25,-6.05zm6.05,6.25c0.25,3.05 0,3.65 -1.6,3.65c-2.3,0 -3.25,-2.65 -2.05,-5.85c1.25,-3.35 3.3,-2.1 3.65,2.2z"/>
  <path d="m119.2,106.2c-3.8,3.8 -0.4,12.55 4.4,11.35c1.9,-0.45 2.45,-0.3 2.15,0.65c-0.25,0.7 -1.55,1.2 -2.85,1.1c-4.05,-0.3 -5.35,0.45 -3.85,2.25c0.85,1.05 2.6,1.45 5.35,1.25l4.1,-0.3l0.3,-8.75l0.3,-8.75l-4.35,0c-2.4,0 -4.9,0.55 -5.55,1.2zm6.6,4.45c0.4,2.85 -2.15,4.85 -3.75,2.95c-0.9,-1.1 -0.9,-2 -0.05,-3.6c1.35,-2.5 3.4,-2.15 3.8,0.65z"/>
  <path d="m133.55,106.55c-2.2,2.25 -2.05,9.7 0.3,11.8c4.5,4.1 10.15,0.75 10.15,-6.1c0,-4.85 -2,-7.25 -6,-7.25c-1.55,0 -3.55,0.7 -4.45,1.55zm6.25,5.8c0.25,3.05 0,3.65 -1.6,3.65c-2.3,0 -3.25,-2.65 -2.05,-5.85c1.25,-3.35 3.3,-2.1 3.65,2.2z"/>
  <path d="m167.65,106.85c-3.9,4.3 -0.75,13.15 4.7,13.15c2.4,0 5.65,-2.75 5.65,-4.85c0,-1.4 -2.65,-1.55 -3.5,-0.15c-0.95,1.55 -4.5,1.15 -4.5,-0.5c0,-1.1 1.1,-1.5 4,-1.5c3.15,0 4,-0.35 4,-1.8c0,-5.3 -6.85,-8.25 -10.35,-4.35z"/>
  <path d="m191,117.5c0,2.15 0.4,2.6 2.25,2.3c1.5,-0.2 2.25,-1 2.25,-2.3c0,-1.3 -0.75,-2.1 -2.25,-2.3c-1.85,-0.3 -2.25,0.15 -2.25,2.3z"/>
 </g></g></g>
</g>
<defs>
<linearGradient id="paint0_linear_0_1" x1="0" y1="198" x2="1584" y2="198" gradientUnits="userSpaceOnUse">
<stop stop-color="#3D052C"/>
<stop offset="1"/>
</linearGradient>
<linearGradient id="paint1_linear_0_1" x1="323" y1="-224" x2="323" y2="352" gradientUnits="userSpaceOnUse">
<stop stop-color="#28F6F2" stop-opacity="0.4"/>
<stop offset="1" stop-color="#17908E" stop-opacity="0.7"/>
</linearGradient>
<linearGradient id="paint2_linear_0_1" x1="148.5" y1="38" x2="148.5" y2="140" gradientUnits="userSpaceOnUse">
<stop stop-color="white"/>
<stop offset="1" stop-color="#999999"/>
</linearGradient>
<linearGradient id="paint3_linear_0_1" x1="38" y1="260" x2="26" y2="260" gradientUnits="userSpaceOnUse">
<stop stop-color="#D9D9D9"/>
<stop offset="1" stop-color="#737373"/>
</linearGradient>
<linearGradient id="paint4_linear_0_1" x1="38" y1="97.5" x2="26" y2="97.5" gradientUnits="userSpaceOnUse">
<stop stop-color="#D9D9D9"/>
<stop offset="1" stop-color="#737373"/>
</linearGradient>
<linearGradient id="paint5_linear_0_1" x1="27.5" y1="434.5" x2="148.5" y2="787" gradientUnits="userSpaceOnUse">
<stop stop-color="#2E21BC"/>
<stop offset="1" stop-color="#150F56"/>
</linearGradient>
<clipPath id="clip0_0_1">
<rect width="1584" height="396" fill="white"/>
</clipPath>
</defs>
</svg>
